<?xml version="1.0" standalone="no"?>
<!DOCTYPE svg PUBLIC "-//W3C//DTD SVG 20010904//EN"
 "http://www.w3.org/TR/2001/REC-SVG-20010904/DTD/svg10.dtd">
<svg version="1.0" xmlns="http://www.w3.org/2000/svg"
 width="512.000000pt" height="512.000000pt" viewBox="0 0 512.000000 512.000000"
 preserveAspectRatio="xMidYMid meet">
<metadata>
Created by potrace 1.14, written by Peter Selinger 2001-2017
</metadata>
<g transform="translate(0.000000,512.000000) scale(0.100000,-0.100000)"
fill="#000000" stroke="none">
<path d="M405 5108 c-160 -30 -314 -166 -377 -334 l-23 -59 -3 -2129 c-2
-1890 -1 -2136 13 -2190 25 -100 63 -166 139 -242 80 -79 162 -125 261 -144
44 -8 634 -10 2180 -8 l2120 3 58 22 c150 57 263 170 320 320 l22 58 3 2120
c2 1546 0 2136 -8 2180 -32 170 -164 322 -336 387 l-59 23 -2130 1 c-1323 1
-2149 -2 -2180 -8z m1470 -1253 c321 -52 526 -217 591 -474 23 -93 16 -275
-15 -352 -42 -110 -139 -187 -281 -225 -87 -23 -283 -25 -304 -4 -11 11 -17
58 -25 185 -11 193 -20 231 -62 280 -40 45 -92 59 -192 52 -238 -16 -395 -234
-453 -629 -21 -142 -15 -458 10 -556 37 -146 102 -232 214 -285 61 -28 78 -32
187 -35 201 -7 306 31 512 183 121 90 167 108 209 80 32 -21 38 -51 31 -159
-8 -114 -49 -283 -84 -343 -158 -271 -638 -399 -1071 -287 -299 78 -503 266
-618 572 -103 272 -106 722 -8 1091 138 525 467 843 939 910 99 14 323 12 420
-4z m2539 -16 c116 -77 266 -303 266 -402 0 -43 -46 -137 -106 -217 -69 -92
-267 -286 -424 -415 -211 -174 -195 -157 -177 -186 8 -13 165 -258 349 -544
184 -286 340 -530 347 -543 41 -77 -184 -255 -356 -281 -81 -13 -172 2 -236
36 -26 15 -78 59 -115 98 -125 132 -202 293 -331 691 -45 137 -83 255 -86 261
-6 18 -135 -66 -140 -92 -2 -11 -18 -222 -35 -470 -24 -339 -36 -456 -47 -474
l-15 -23 -181 4 c-253 7 -323 34 -385 152 -27 51 -27 52 -26 246 1 136 20 428
62 965 34 424 67 859 73 968 16 250 -2 232 222 224 219 -8 299 -34 354 -116
41 -61 48 -105 47 -291 -2 -170 -19 -511 -30 -578 -3 -23 -2 -32 5 -27 16 10
230 284 505 648 159 209 264 340 293 362 60 46 102 47 167 4z"/>
</g>
</svg>
